<svg width="18" height="18" viewBox="0 0 18 18" fill="none" xmlns="http://www.w3.org/2000/svg">
<path d="M8.16406 8.16602V4.83268H9.83073V8.16602H13.1641V9.83268H9.83073V13.166H8.16406V9.83268H4.83073V8.16602H8.16406ZM8.9974 17.3327C4.3949 17.3327 0.664062 13.6018 0.664062 8.99935C0.664062 4.39685 4.3949 0.666016 8.9974 0.666016C13.5999 0.666016 17.3307 4.39685 17.3307 8.99935C17.3307 13.6018 13.5999 17.3327 8.9974 17.3327ZM8.9974 15.666C10.7655 15.666 12.4612 14.9636 13.7114 13.7134C14.9617 12.4632 15.6641 10.7675 15.6641 8.99935C15.6641 7.23124 14.9617 5.53555 13.7114 4.2853C12.4612 3.03506 10.7655 2.33268 8.9974 2.33268C7.22929 2.33268 5.53359 3.03506 4.28335 4.2853C3.03311 5.53555 2.33073 7.23124 2.33073 8.99935C2.33073 10.7675 3.03311 12.4632 4.28335 13.7134C5.53359 14.9636 7.22929 15.666 8.9974 15.666Z" fill="white"/>
</svg>
