<svg width="18" height="18" viewBox="0 0 18 18" fill="none" xmlns="http://www.w3.org/2000/svg">
<path d="M13.1641 3.99935H17.3307V5.66602H15.6641V16.4993C15.6641 16.7204 15.5763 16.9323 15.42 17.0886C15.2637 17.2449 15.0517 17.3327 14.8307 17.3327H3.16406C2.94305 17.3327 2.73109 17.2449 2.57481 17.0886C2.41853 16.9323 2.33073 16.7204 2.33073 16.4993V5.66602H0.664062V3.99935H4.83073V1.49935C4.83073 1.27834 4.91853 1.06637 5.07481 0.910093C5.23109 0.753813 5.44305 0.666016 5.66406 0.666016H12.3307C12.5517 0.666016 12.7637 0.753813 12.92 0.910093C13.0763 1.06637 13.1641 1.27834 13.1641 1.49935V3.99935ZM13.9974 5.66602H3.9974V15.666H13.9974V5.66602ZM6.4974 8.16602H8.16406V13.166H6.4974V8.16602ZM9.83073 8.16602H11.4974V13.166H9.83073V8.16602ZM6.4974 2.33268V3.99935H11.4974V2.33268H6.4974Z" fill="#D0D1D1"/>
</svg>
