<svg width="3" height="15" viewBox="0 0 3 15" fill="none" xmlns="http://www.w3.org/2000/svg">
<path d="M1.37694 0.921875C0.757124 0.921875 0.25 1.429 0.25 2.04882C0.25 2.66864 0.757124 3.17576 1.37694 3.17576C1.99676 3.17576 2.50389 2.66864 2.50389 2.04882C2.50389 1.429 1.99676 0.921875 1.37694 0.921875ZM1.37694 12.1913C0.757124 12.1913 0.25 12.6984 0.25 13.3182C0.25 13.9381 0.757124 14.4452 1.37694 14.4452C1.99676 14.4452 2.50389 13.9381 2.50389 13.3182C2.50389 12.6984 1.99676 12.1913 1.37694 12.1913ZM1.37694 6.55659C0.757124 6.55659 0.25 7.06371 0.25 7.68353C0.25 8.30335 0.757124 8.81048 1.37694 8.81048C1.99676 8.81048 2.50389 8.30335 2.50389 7.68353C2.50389 7.06371 1.99676 6.55659 1.37694 6.55659Z" fill="#D0D1D1"/>
</svg>
